<?xml version="1.0" standalone="no"?>
<!DOCTYPE svg PUBLIC "-//W3C//DTD SVG 20010904//EN"
 "http://www.w3.org/TR/2001/REC-SVG-20010904/DTD/svg10.dtd">
<svg version="1.0" xmlns="http://www.w3.org/2000/svg"
 width="3233.000000pt" height="3233.000000pt" viewBox="0 0 3233.000000 3233.000000"
 preserveAspectRatio="xMidYMid meet">
<metadata>
Created by potrace 1.11, written by Peter Selinger 2001-2013
</metadata>
<g transform="translate(0.000000,3233.000000) scale(0.100000,-0.100000)"
fill="#000000" stroke="none">
<path d="M9005 29890 c72 -39 166 -94 210 -123 548 -357 926 -897 1144 -1632
24 -83 92 -352 95 -380 2 -11 6 -33 10 -50 3 -16 8 -41 11 -55 3 -14 7 -36 10
-50 3 -14 7 -41 9 -60 3 -19 7 -46 10 -60 7 -39 25 -159 32 -220 3 -30 8 -62
9 -71 2 -8 6 -49 9 -91 4 -41 8 -84 10 -94 2 -11 7 -62 11 -114 3 -52 8 -117
10 -145 20 -283 27 -1199 12 -1580 -15 -369 -23 -541 -31 -695 -2 -36 -7 -126
-11 -200 -3 -74 -8 -160 -10 -190 -2 -30 -7 -102 -10 -160 -3 -58 -7 -134 -10
-170 -5 -74 -11 -177 -20 -330 -3 -58 -8 -134 -10 -170 -3 -36 -7 -108 -10
-160 -7 -126 -14 -236 -20 -340 -3 -47 -7 -128 -10 -180 -3 -52 -7 -138 -10
-190 -6 -109 -12 -239 -20 -425 -3 -71 -7 -175 -10 -230 -28 -660 -27 -1826 0
-2320 3 -44 7 -127 10 -185 3 -58 8 -127 10 -155 2 -27 6 -88 10 -135 3 -47 8
-101 10 -120 2 -19 7 -73 10 -120 4 -47 8 -96 10 -110 2 -14 6 -54 10 -90 3
-36 8 -81 10 -100 2 -19 7 -60 10 -90 3 -30 8 -71 11 -90 2 -19 6 -55 9 -80 3
-25 10 -76 16 -115 5 -38 12 -89 15 -111 3 -23 6 -50 8 -60 2 -11 9 -55 16
-99 6 -44 18 -118 26 -165 8 -47 17 -101 20 -120 3 -19 14 -80 24 -135 11 -55
22 -111 24 -125 3 -14 12 -59 21 -100 8 -41 17 -84 19 -95 10 -52 84 -372 102
-440 3 -11 20 -77 38 -147 l34 -128 -27 4 c-14 2 -53 7 -86 11 -33 3 -76 8
-95 10 -19 3 -62 7 -95 9 -33 3 -89 7 -125 10 -296 25 -557 35 -915 36 -296 0
-587 -9 -775 -25 -30 -3 -89 -7 -130 -10 -110 -8 -200 -17 -320 -30 -19 -3
-57 -7 -85 -9 -27 -3 -66 -7 -85 -10 -19 -3 -56 -7 -81 -11 -25 -3 -57 -8 -70
-10 -13 -2 -46 -6 -74 -10 -27 -3 -88 -12 -135 -20 -47 -8 -101 -16 -120 -19
-51 -8 -92 -16 -116 -21 -12 -3 -39 -7 -60 -11 -33 -5 -130 -23 -199 -37 -11
-3 -38 -8 -60 -12 -22 -5 -44 -9 -50 -11 -5 -1 -21 -4 -35 -7 -31 -6 -47 -10
-185 -43 -60 -14 -119 -28 -131 -30 -37 -7 -295 -74 -404 -105 -342 -97 -770
-240 -1090 -365 -167 -66 -178 -70 -240 -97 -19 -8 -102 -44 -185 -80 -352
-152 -728 -339 -1140 -567 -264 -147 -736 -445 -1025 -649 -25 -17 -61 -42
-80 -55 -38 -26 -276 -201 -325 -240 -16 -13 -76 -59 -132 -103 -103 -80 -381
-306 -418 -340 -11 -10 -47 -40 -80 -68 -33 -27 -62 -52 -65 -55 -3 -4 -48
-44 -100 -91 -224 -198 -326 -295 -595 -564 -260 -261 -380 -388 -593 -630
-58 -66 -108 -122 -112 -125 -3 -3 -51 -59 -105 -125 -55 -66 -102 -122 -105
-125 -3 -3 -14 -15 -25 -28 l-19 -23 24 10 c14 5 49 21 78 35 228 112 491 191
747 223 78 10 370 10 459 0 296 -33 604 -143 941 -336 110 -64 373 -249 465
-327 14 -12 75 -64 135 -115 120 -102 496 -474 615 -608 41 -47 82 -92 90
-101 87 -93 467 -553 567 -686 36 -47 183 -237 200 -258 32 -40 287 -381 448
-601 92 -126 198 -270 235 -320 36 -49 166 -227 288 -395 122 -168 267 -366
322 -440 55 -74 115 -157 135 -185 19 -27 45 -62 57 -77 13 -14 30 -36 38 -48
20 -30 118 -161 133 -180 7 -8 55 -71 107 -140 198 -263 710 -910 765 -966 5
-6 28 -32 50 -59 55 -66 99 -119 105 -125 3 -3 48 -54 100 -115 52 -60 101
-117 109 -126 9 -9 39 -43 67 -75 28 -32 67 -76 85 -96 19 -20 77 -83 129
-140 231 -252 733 -742 970 -948 52 -46 109 -95 125 -109 17 -15 100 -83 185
-152 537 -434 996 -736 1535 -1009 201 -101 265 -132 410 -195 238 -105 564
-221 835 -299 183 -53 493 -128 580 -141 24 -4 47 -8 50 -10 3 -2 23 -6 45 -9
22 -4 80 -13 128 -22 48 -8 105 -17 125 -19 20 -2 69 -8 107 -14 39 -5 99 -12
135 -16 36 -3 81 -8 100 -10 160 -17 274 -20 690 -20 409 0 588 5 725 19 17 2
66 7 110 10 44 4 96 9 115 11 19 3 60 7 90 10 30 4 66 8 80 10 66 9 109 15
150 20 25 4 56 8 70 10 53 8 116 18 135 20 52 8 160 28 300 55 55 11 109 22
120 24 11 2 50 11 86 20 37 8 78 17 90 20 202 36 902 253 1076 332 17 8 34 14
38 14 3 0 25 9 48 19 23 10 70 31 105 45 162 68 470 219 570 278 34 21 64 38
66 38 9 0 265 159 346 215 294 201 469 345 699 576 152 151 285 306 413 480
l26 36 -131 139 c-149 158 -1023 1033 -1168 1169 -222 209 -523 488 -605 560
-6 6 -47 42 -90 81 -43 39 -97 86 -119 105 -22 19 -52 45 -66 59 -14 14 -50
46 -80 72 -30 25 -65 56 -79 68 -14 11 -36 31 -50 42 -14 12 -59 51 -100 86
-140 120 -175 150 -333 281 -86 72 -163 135 -170 141 -6 6 -87 70 -179 144
-305 244 -478 377 -964 740 -23 17 -52 38 -64 46 -12 8 -56 40 -98 71 -334
243 -1174 809 -1202 809 -5 0 -10 3 -12 8 -8 18 -741 461 -1023 617 -27 16
-99 56 -160 90 -273 154 -608 329 -970 509 -279 138 -454 221 -730 346 -180
82 -267 120 -440 192 -66 28 -139 59 -162 69 -76 35 -496 200 -723 286 -441
166 -766 276 -1350 459 -48 15 -315 93 -340 99 -8 2 -62 17 -120 34 -150 42
-578 156 -625 165 -11 3 -85 21 -165 40 -80 20 -154 38 -165 40 -11 3 -101 22
-200 45 -267 59 -406 89 -446 95 -20 3 -42 8 -50 10 -11 5 -517 99 -646 120
-33 6 -68 12 -120 21 -37 6 -348 54 -393 61 -19 2 -46 6 -60 8 -14 2 -47 7
-73 11 -27 4 -59 8 -70 11 -12 2 -47 6 -77 9 -30 3 -66 8 -80 10 -14 2 -43 7
-65 9 -22 3 -60 8 -85 11 -25 3 -61 8 -80 10 -19 2 -53 7 -75 9 -22 3 -65 8
-95 11 -30 3 -91 9 -135 15 -44 5 -107 12 -140 15 -33 3 -76 8 -95 10 -19 3
-66 7 -105 10 -38 3 -90 8 -115 10 -113 11 -208 19 -355 30 -33 2 -96 7 -140
10 -95 8 -144 11 -330 21 -77 4 -151 8 -165 9 -14 1 -43 3 -65 5 -38 1 -36 2
25 16 36 8 81 17 100 20 19 2 49 8 65 11 46 10 47 10 90 17 22 3 76 13 120 21
44 8 98 17 120 20 22 3 65 10 95 15 30 5 70 12 88 15 17 3 46 7 62 10 17 3 42
7 58 10 15 2 68 9 117 15 50 6 97 13 105 15 8 2 44 7 80 10 36 4 67 8 70 10 3
2 39 6 80 10 41 4 82 8 90 10 9 2 46 6 82 9 37 4 75 9 86 11 11 2 58 6 104 10
45 3 94 8 108 10 14 2 63 7 110 10 47 4 101 8 120 10 37 4 123 10 276 20 507
34 1295 39 1824 10 169 -9 288 -16 320 -20 19 -3 71 -7 115 -10 44 -3 96 -8
115 -10 19 -2 71 -7 115 -11 44 -3 91 -7 105 -9 14 -2 48 -6 75 -9 28 -3 70
-8 95 -11 25 -3 63 -8 85 -10 55 -6 125 -15 155 -20 14 -2 62 -9 107 -15 46
-6 97 -13 115 -16 18 -2 49 -7 68 -10 82 -11 454 -75 459 -78 3 -2 26 -7 51
-10 25 -3 54 -8 65 -10 24 -6 311 -65 340 -70 38 -8 121 -27 290 -67 93 -23
176 -43 185 -45 49 -11 330 -86 410 -109 52 -15 109 -31 125 -35 281 -72 1289
-423 1520 -530 11 -5 61 -25 110 -45 50 -20 105 -43 123 -51 17 -8 47 -20 65
-28 698 -299 1467 -697 2157 -1118 456 -279 1034 -668 1437 -967 33 -25 73
-55 89 -66 26 -19 88 -66 109 -83 6 -4 48 -37 95 -72 47 -36 92 -70 100 -77 8
-7 76 -60 150 -118 74 -58 144 -114 155 -123 11 -9 65 -53 120 -97 55 -44 102
-82 105 -85 3 -3 75 -63 160 -135 85 -71 166 -139 180 -151 58 -50 195 -169
200 -174 3 -3 61 -55 130 -115 68 -61 131 -117 140 -125 107 -99 236 -218 253
-233 136 -118 925 -897 1162 -1148 115 -122 298 -317 376 -403 30 -32 65 -71
79 -86 58 -63 176 -195 193 -214 10 -12 28 -32 41 -46 87 -96 210 -237 406
-466 91 -106 169 -194 174 -194 5 -1 15 16 23 37 32 92 175 509 178 523 3 8
45 134 95 280 143 422 610 1811 625 1860 7 25 54 164 105 310 50 146 92 270
94 275 1 6 14 44 29 85 14 41 83 235 151 430 69 195 154 436 191 535 36 99 68
187 70 195 4 17 190 514 204 545 5 11 16 40 26 65 10 25 21 54 25 65 5 11 45
115 91 230 109 279 246 611 362 880 132 304 199 454 324 725 54 117 427 865
479 960 193 356 328 595 464 823 36 59 70 115 75 125 10 17 67 108 92 148 7
10 27 42 43 69 45 73 54 88 63 99 4 6 81 121 170 256 90 135 189 281 220 325
99 140 242 337 252 349 6 6 43 56 84 111 69 92 288 373 301 385 3 3 32 39 65
80 50 62 149 180 273 325 29 34 152 174 167 191 5 6 53 57 105 114 193 211
240 260 490 510 226 226 294 292 480 464 146 135 458 408 591 517 24 20 76 63
115 95 38 33 85 70 103 84 18 14 47 37 64 52 18 14 82 65 142 112 61 47 115
89 120 94 93 76 603 446 789 573 498 340 1216 785 1556 967 36 19 72 41 81 48
8 8 18 14 21 14 3 0 41 20 84 44 44 24 99 55 124 68 51 29 218 117 360 191 52
27 110 58 129 69 68 38 39 9 -76 -77 -209 -157 -787 -615 -818 -649 -6 -6 -35
-31 -65 -56 -59 -47 -382 -321 -390 -330 -3 -3 -43 -39 -90 -80 -94 -82 -145
-127 -170 -150 -9 -8 -56 -51 -106 -95 -49 -44 -98 -89 -109 -100 -12 -11 -48
-45 -80 -74 -345 -316 -960 -928 -1265 -1260 -47 -51 -105 -114 -130 -140 -25
-27 -76 -83 -115 -127 -38 -43 -77 -85 -85 -94 -8 -8 -42 -47 -75 -85 -33 -38
-67 -76 -75 -85 -28 -30 -95 -106 -140 -161 -25 -29 -61 -72 -81 -94 -20 -22
-60 -70 -90 -106 -30 -36 -97 -117 -149 -180 -253 -302 -765 -962 -900 -1159
-13 -19 -27 -37 -30 -40 -3 -3 -58 -79 -122 -170 -64 -91 -132 -188 -152 -215
-19 -28 -74 -108 -123 -180 -48 -71 -91 -131 -95 -133 -5 -2 -8 -7 -8 -12 0
-5 -33 -57 -73 -117 -62 -91 -144 -217 -362 -558 -56 -87 -281 -458 -352 -579
-37 -64 -76 -131 -86 -148 -76 -130 -208 -363 -260 -458 -16 -30 -38 -68 -47
-85 -30 -52 -131 -239 -215 -400 -32 -60 -70 -132 -85 -160 -109 -197 -479
-959 -621 -1277 -23 -51 -59 -131 -80 -176 -22 -46 -39 -85 -39 -87 0 -2 -13
-32 -29 -67 -36 -77 -267 -618 -286 -667 -7 -20 -50 -126 -94 -236 -133 -327
-239 -604 -377 -985 -47 -129 -96 -264 -109 -300 -53 -146 -298 -873 -310
-920 -2 -8 -22 -73 -45 -145 -44 -136 -188 -606 -197 -640 -3 -11 -23 -81 -45
-155 -22 -74 -46 -157 -53 -185 -7 -27 -27 -99 -44 -159 -17 -60 -30 -110 -28
-112 17 -16 223 -90 357 -127 72 -21 290 -64 360 -72 30 -4 66 -9 80 -11 150
-24 635 -24 820 0 19 3 58 8 85 11 28 3 79 10 115 16 36 6 76 12 90 14 239 33
679 150 1005 265 533 189 1132 484 1645 810 22 14 68 43 102 65 56 35 308 207
333 227 6 4 71 54 145 110 74 55 149 113 166 127 17 14 52 44 79 66 27 22 59
49 71 60 12 11 50 45 85 75 155 135 403 379 554 544 44 49 85 94 92 101 73 77
343 417 453 570 36 50 68 92 71 95 3 3 8 10 10 15 2 6 40 64 85 130 274 405
514 850 772 1425 11 25 37 86 57 135 20 50 43 104 50 120 41 95 233 607 239
640 1 6 15 48 31 95 16 47 30 87 30 90 2 9 67 215 81 255 15 46 77 256 104
360 10 39 27 102 38 140 25 92 113 434 118 460 2 11 10 47 18 80 33 135 107
466 120 535 3 14 21 104 41 200 40 190 84 418 90 464 3 15 7 35 9 45 3 9 8 38
11 65 4 28 8 53 10 56 2 4 9 33 14 66 10 56 37 210 47 264 6 33 35 207 41 245
2 17 11 66 18 110 8 44 17 94 19 110 3 17 19 116 37 220 17 105 33 204 35 220
2 17 6 41 9 55 3 14 8 45 11 70 3 25 7 52 9 60 2 8 7 35 10 60 3 25 8 52 10
60 2 8 7 35 10 60 3 25 14 95 25 155 11 61 22 128 25 150 3 23 7 50 9 62 3 11
7 38 10 59 4 22 13 80 22 129 8 50 17 104 20 120 3 17 14 80 24 140 11 61 22
126 25 145 3 19 8 42 10 50 2 8 6 31 9 50 8 47 14 80 31 170 8 41 17 89 20
105 22 136 161 770 195 895 6 19 30 112 55 205 25 94 52 187 60 208 8 20 14
38 13 40 -2 4 51 165 102 309 55 153 120 313 175 433 21 44 41 89 46 100 5 11
33 64 61 117 325 598 727 962 1257 1138 126 42 311 86 381 90 19 1 11 7 -30
21 -48 18 -359 114 -400 124 -8 3 -82 22 -165 44 -82 23 -211 55 -285 72 -74
17 -139 32 -145 33 -5 2 -28 6 -50 11 -45 9 -66 13 -94 19 -10 2 -36 7 -57 10
-22 4 -46 8 -54 11 -17 5 -47 10 -135 25 -33 5 -69 12 -80 14 -22 4 -97 16
-135 21 -14 2 -45 6 -70 10 -79 12 -94 14 -150 20 -30 3 -66 8 -80 10 -14 2
-54 7 -90 10 -36 4 -76 8 -90 10 -14 2 -70 6 -125 10 -55 4 -108 9 -118 11
-131 24 -1156 24 -1354 -1 -16 -2 -68 -6 -118 -10 -49 -3 -103 -8 -120 -10
-16 -2 -57 -7 -90 -10 -33 -3 -94 -10 -135 -15 -41 -5 -95 -12 -119 -15 -42
-5 -82 -11 -131 -20 -14 -2 -44 -7 -68 -10 -23 -3 -82 -13 -130 -21 -48 -8
-98 -16 -112 -19 -14 -2 -61 -11 -105 -20 -44 -10 -91 -19 -105 -21 -105 -18
-517 -120 -726 -179 -274 -78 -759 -242 -899 -304 -11 -5 -36 -15 -55 -22 -19
-6 -59 -23 -88 -36 -29 -12 -55 -23 -58 -23 -3 0 -29 -11 -57 -24 -29 -12 -81
-36 -117 -51 -196 -84 -560 -260 -715 -345 -27 -15 -81 -44 -120 -65 -202
-108 -502 -288 -755 -453 -232 -151 -720 -505 -837 -606 -7 -6 -18 -16 -25
-21 -104 -82 -375 -311 -484 -410 -155 -139 -250 -231 -449 -430 -234 -233
-285 -287 -429 -447 -62 -70 -91 -88 -84 -55 2 13 -7 88 -27 227 -4 25 -8 56
-10 70 -4 28 -24 162 -31 200 -4 27 -41 236 -49 285 -26 146 -127 609 -162
745 -3 14 -7 32 -9 40 -3 14 -87 326 -121 450 -33 123 -123 412 -191 615 -126
378 -325 894 -453 1173 -16 35 -29 65 -29 68 0 3 -11 29 -24 57 -13 29 -38 84
-56 122 -104 227 -282 587 -387 785 -84 157 -117 217 -149 273 -19 32 -34 60
-34 62 0 2 -34 61 -75 130 -41 70 -75 128 -75 130 0 4 -198 327 -264 430 -32
50 -63 99 -69 110 -7 11 -14 22 -17 25 -3 3 -54 79 -114 170 -250 376 -581
821 -879 1180 -43 52 -88 106 -100 120 -23 28 -196 229 -212 246 -5 6 -39 44
-75 84 -391 442 -1001 1030 -1444 1395 -27 22 -54 45 -60 50 -15 13 -239 192
-296 235 -25 19 -47 37 -50 40 -3 3 -77 59 -165 123 -88 65 -167 124 -176 130
-64 49 -428 297 -435 297 -3 0 -10 5 -17 11 -20 17 -291 190 -385 244 -9 6
-60 36 -112 67 -52 31 -113 66 -135 78 -22 13 -96 54 -165 93 -130 73 -546
285 -685 349 -44 20 -114 52 -155 71 -127 59 -190 87 -195 87 -2 0 -28 11 -57
24 -144 65 -750 293 -888 334 -19 6 -125 38 -235 72 -110 33 -234 70 -275 81
-117 32 -340 88 -363 93 -12 2 -62 14 -112 25 -113 27 -458 96 -545 110 -36 6
-76 13 -90 15 -56 10 -237 38 -270 42 -19 2 -48 6 -65 8 -75 11 -195 26 -245
31 -30 3 -71 7 -90 10 -38 5 -149 15 -220 20 -25 2 -79 6 -120 9 -169 13 -281
18 -600 22 l-335 5 130 -71z m2311 -1115 c6 -5 37 -32 68 -60 65 -56 70 -60
211 -189 286 -260 382 -353 735 -706 179 -179 379 -383 445 -454 66 -71 129
-139 140 -150 27 -28 184 -204 265 -296 36 -40 85 -97 110 -125 85 -96 148
-170 260 -305 61 -74 128 -155 148 -179 30 -36 319 -402 365 -461 357 -465
716 -978 1022 -1460 54 -85 113 -177 130 -205 109 -170 436 -731 567 -975 17
-30 45 -82 63 -115 64 -114 186 -351 314 -610 176 -354 217 -441 363 -765 38
-85 78 -173 88 -195 10 -22 55 -128 100 -235 45 -107 88 -208 95 -225 35 -79
278 -703 306 -785 4 -14 26 -74 49 -135 22 -60 42 -117 45 -125 2 -8 11 -35
20 -60 54 -143 254 -750 315 -955 58 -194 104 -348 120 -405 10 -36 28 -99 39
-140 12 -41 23 -82 26 -90 44 -155 184 -693 200 -770 4 -16 52 -216 86 -360
12 -47 23 -96 25 -110 3 -14 12 -54 20 -90 8 -36 19 -85 24 -110 5 -25 18 -88
30 -140 11 -52 23 -108 26 -125 2 -16 7 -38 10 -47 6 -21 13 -53 20 -98 3 -19
10 -55 15 -80 8 -36 41 -208 93 -485 2 -11 7 -36 11 -55 3 -19 7 -42 9 -50 1
-8 6 -37 10 -65 4 -27 10 -61 12 -75 16 -92 46 -271 50 -300 2 -19 9 -57 14
-85 5 -27 12 -66 14 -85 3 -19 7 -48 10 -65 3 -16 12 -79 21 -140 9 -60 18
-121 20 -135 5 -32 11 -80 20 -150 4 -30 9 -64 11 -75 2 -11 6 -44 9 -74 3
-30 8 -57 10 -61 2 -3 6 -35 9 -71 4 -35 8 -74 10 -86 3 -12 8 -53 11 -90 4
-37 9 -70 10 -73 2 -3 6 -39 10 -80 4 -41 9 -84 11 -95 2 -11 7 -49 10 -85 3
-36 7 -76 9 -90 2 -14 7 -52 10 -85 6 -62 13 -134 20 -195 4 -39 12 -122 20
-202 2 -29 7 -80 10 -113 4 -33 8 -85 10 -115 3 -30 7 -75 9 -100 3 -25 8 -81
11 -125 4 -44 8 -98 10 -120 4 -48 14 -185 20 -275 2 -36 7 -101 10 -145 9
-124 14 -211 20 -320 3 -55 8 -127 10 -160 2 -33 7 -134 10 -225 4 -91 8 -196
10 -235 2 -38 6 -162 10 -275 3 -113 8 -252 10 -310 l4 -105 -147 295 c-277
555 -533 968 -898 1450 -56 74 -104 144 -107 155 -3 11 -9 49 -12 85 -4 36 -8
72 -10 80 -1 8 -6 42 -9 75 -4 33 -9 71 -11 85 -2 14 -6 50 -10 80 -4 30 -8
66 -10 80 -2 14 -9 63 -15 110 -6 47 -13 101 -16 120 -2 19 -6 44 -9 55 -2 11
-7 45 -10 75 -3 30 -8 62 -10 70 -2 8 -7 40 -10 70 -4 30 -15 109 -25 175 -22
139 -29 186 -36 235 -3 19 -9 60 -14 90 -5 30 -12 71 -15 90 -3 19 -7 46 -10
60 -2 14 -7 43 -10 65 -5 39 -9 62 -20 115 -2 14 -7 39 -9 55 -3 17 -14 84
-26 150 -20 122 -22 130 -40 235 -6 33 -13 72 -16 87 -3 16 -14 78 -26 138
-11 61 -22 119 -23 130 -2 11 -10 54 -19 95 -8 41 -17 86 -20 100 -2 14 -19
95 -36 180 -17 85 -33 166 -36 180 -2 14 -9 46 -15 71 -6 26 -12 53 -13 60 -2
8 -5 25 -9 39 -8 37 -37 172 -41 195 -4 19 -55 245 -97 430 -69 304 -252 1036
-264 1054 -2 4 -6 19 -9 34 -2 14 -23 95 -47 179 -23 84 -45 167 -49 183 -39
149 -244 835 -346 1155 -50 156 -172 522 -244 730 -45 129 -88 255 -97 280 -8
25 -18 54 -23 65 -14 34 -64 169 -66 180 -3 17 -107 290 -185 490 -24 61 -44
112 -44 115 -1 7 -103 266 -120 305 -7 17 -43 104 -80 195 -120 297 -387 911
-508 1170 -19 41 -45 98 -57 125 -12 28 -49 106 -82 175 -33 69 -76 159 -95
200 -45 97 -392 791 -431 861 -16 30 -66 126 -112 214 -46 88 -86 162 -89 165
-3 3 -20 34 -38 70 -18 36 -49 94 -68 130 -20 36 -73 130 -117 210 -190 341
-524 911 -714 1217 -259 416 -645 1009 -839 1288 -171 246 -227 326 -369 524
-89 122 -168 233 -176 245 -38 54 -294 398 -445 596 -78 102 -145 192 -150
200 -7 11 183 -150 241 -205z"/>
</g>
</svg>
